<svg id="Layer_1" data-name="Layer 1" xmlns="http://www.w3.org/2000/svg" viewBox="0 0 160 37"><defs><style>.cls-1{fill:#6a7c91;}</style></defs><path class="cls-1" d="M16.69,33.8v.85h0v0H3.92l.2-1c0-.19.08-.36.12-.53s.08-.33.13-.49l0-.08,0-.09c0-.13.07-.25.11-.37h0c0-.1.07-.2.1-.3l.12-.33c0-.14.11-.29.17-.43l.15-.36.07-.15a2.53,2.53,0,0,1,.16-.33l.06-.13c0-.11.11-.22.17-.33a.7.7,0,0,1,.08-.14h0v0l.22-.37a2.5,2.5,0,0,1,.21-.35l0-.05.06-.1,0-.05.25-.36c.09-.13.19-.28.3-.42A3.1,3.1,0,0,1,7,27.52H7l0,0,.1-.12c.08-.11.17-.21.26-.32L7.43,27l.28-.32.09-.09.34-.36a14.73,14.73,0,0,1,3.54-2.61H5.35A18.47,18.47,0,0,0,0,36.59V38.5H20.42V21.91h0V5.61H33.2l-.2,1a14.71,14.71,0,0,1-4,7.45,14.12,14.12,0,0,1-1.37,1.21H33a18.21,18.21,0,0,0,2.63-4.38,18.28,18.28,0,0,0,1.46-7.2V1.77H16.69Z" transform="translate(0 -1.5)"/><path class="cls-1" d="M3.83,18.09V5.41l1,.2a14.55,14.55,0,0,1,7.49,4l.42.44V5a19,19,0,0,0-3.6-2A18.46,18.46,0,0,0,1.94,1.5H0V20.79H12.75v-2.7H3.83Z" transform="translate(0 -1.5)"/><path class="cls-1" d="M33,20.79v13.8l-1-.2a14.62,14.62,0,0,1-7.5-4l-.13-.13v5A18.62,18.62,0,0,0,27.69,37,18.36,18.36,0,0,0,34.9,38.5h1.94V18.09H24.38v2.7H33Z" transform="translate(0 -1.5)"/><path class="cls-1" d="M68.56,22.51a6.73,6.73,0,0,1,1.57,4.43,7,7,0,0,1-2.34,5.52c-1.55,1.36-3.81,2-6.76,2H49.91V6.57H60.83a9.75,9.75,0,0,1,6.43,1.88,6.37,6.37,0,0,1,2.23,5.16,6.43,6.43,0,0,1-1.38,4.29,6.69,6.69,0,0,1-3.64,2.2A6.9,6.9,0,0,1,68.56,22.51ZM54.42,18.6H60a5.28,5.28,0,0,0,3.62-1.11,3.93,3.93,0,0,0,1.25-3.09,3.86,3.86,0,0,0-1.25-3,5.54,5.54,0,0,0-3.78-1.11H54.42Zm9.67,11a4,4,0,0,0,1.41-3.26,4.06,4.06,0,0,0-1.42-3.28,6,6,0,0,0-4-1.19H54.42v8.9h5.7A6,6,0,0,0,64.09,29.61Z" transform="translate(0 -1.5)"/><path class="cls-1" d="M90,13.77a9.67,9.67,0,0,1,4,3.88,11.86,11.86,0,0,1,1.42,5.93,12,12,0,0,1-1.42,6,9.67,9.67,0,0,1-4,3.88,12.65,12.65,0,0,1-11.37,0,9.82,9.82,0,0,1-4-3.9,11.79,11.79,0,0,1-1.45-6,11.66,11.66,0,0,1,1.45-5.93,9.83,9.83,0,0,1,4-3.88,12.65,12.65,0,0,1,11.37,0Zm-8.9,3.36a5.87,5.87,0,0,0-2.35,2.43,8.41,8.41,0,0,0-.89,4,8.31,8.31,0,0,0,.89,4A5.84,5.84,0,0,0,81.12,30a6.64,6.64,0,0,0,3.21.79,6.57,6.57,0,0,0,3.2-.79,5.86,5.86,0,0,0,2.36-2.42,8.31,8.31,0,0,0,.89-4,8.41,8.41,0,0,0-.89-4,5.89,5.89,0,0,0-2.36-2.43,6.57,6.57,0,0,0-3.2-.79A6.64,6.64,0,0,0,81.12,17.13Z" transform="translate(0 -1.5)"/><path class="cls-1" d="M110.71,30.58V34.5h-2.77a7.47,7.47,0,0,1-5.28-1.68q-1.8-1.68-1.8-5.6V16.54H97.74V12.7h3.12V7.28h4.55V12.7h5.26v3.84h-5.26V27.3a3.68,3.68,0,0,0,.69,2.57,3.39,3.39,0,0,0,2.44.71Z" transform="translate(0 -1.5)"/><path class="cls-1" d="M131.64,14.66a9.66,9.66,0,0,1,3.44,6.07h-4.79a5.08,5.08,0,0,0-1.92-3.22,6,6,0,0,0-3.81-1.17,5.73,5.73,0,0,0-4.35,1.84,7.59,7.59,0,0,0-1.75,5.4A7.66,7.66,0,0,0,120.21,29a5.71,5.71,0,0,0,4.35,1.86,6,6,0,0,0,3.81-1.19,5.16,5.16,0,0,0,1.92-3.24h4.79a9.74,9.74,0,0,1-3.44,6.09,10.75,10.75,0,0,1-7,2.26,11.35,11.35,0,0,1-5.6-1.35,9.58,9.58,0,0,1-3.82-3.88,12.27,12.27,0,0,1-1.38-6,12.17,12.17,0,0,1,1.38-5.93A9.58,9.58,0,0,1,119,13.77a11.35,11.35,0,0,1,5.6-1.35A10.8,10.8,0,0,1,131.64,14.66Z" transform="translate(0 -1.5)"/><path class="cls-1" d="M157.71,14.8c1.53,1.63,2.29,4,2.29,7V34.5h-4.51V22.27a6.38,6.38,0,0,0-1.5-4.53,5.42,5.42,0,0,0-4.12-1.6,5.67,5.67,0,0,0-4.31,1.72,7.11,7.11,0,0,0-1.62,5.05V34.5h-4.51V5.22h4.51V17.49a7.32,7.32,0,0,1,2.93-3.8,8.43,8.43,0,0,1,4.74-1.34A7.93,7.93,0,0,1,157.71,14.8Z" transform="translate(0 -1.5)"/></svg>